<svg width="33" height="32" viewBox="0 0 33 32" fill="none" xmlns="http://www.w3.org/2000/svg">
<g clip-path="url(#clip0_162_6948)">
<path fill-rule="evenodd" clip-rule="evenodd" d="M23.9773 24.5955C22.974 25.6109 21.9753 26.6309 20.9674 27.6387C19.7568 28.8494 18.5144 30.06 17.3129 31.2843C17.0268 31.5763 16.8891 31.5688 16.6046 31.2843C12.6923 27.385 8.77243 23.4928 4.84498 19.6076C4.21394 18.9826 3.59804 18.341 2.94733 17.7387C2.6704 17.4815 2.7158 17.3543 2.97457 17.1334C5.80591 14.6607 9.04886 12.9945 12.7352 12.3105C19.5132 11.0514 25.5769 12.6359 30.8733 17.0819C31.2032 17.3589 31.2184 17.5011 30.8975 17.8023C28.552 20.0132 26.0687 22.0168 23.0088 23.173C20.0897 24.2777 17.1661 24.2323 14.2591 23.1412C13.088 22.728 12.0771 21.9559 11.3702 20.9348C10.2837 19.3337 10.438 17.3528 11.7773 15.95C12.9698 14.7015 14.5012 14.134 16.1658 13.9101C17.3882 13.722 18.638 13.8304 19.8098 14.2263C20.5048 14.4511 21.1222 14.8676 21.5909 15.4279C22.4671 16.5099 22.3566 17.9354 21.2731 18.8101C19.952 19.8694 18.4327 20.1887 16.7802 19.8195C16.2444 19.7056 15.7609 19.4184 15.4046 19.0023C15.055 18.6013 14.598 18.5483 14.2606 18.8222C13.9231 19.0961 13.8959 19.5925 14.2606 20.0208C14.931 20.8001 15.8223 21.183 16.8059 21.3494C18.8125 21.6915 20.7132 21.3888 22.405 20.213C24.6538 18.6482 24.6976 16.0105 22.5231 14.3368C21.1112 13.2457 19.4617 12.9173 17.7214 12.8856C15.3426 12.8432 13.1165 13.3789 11.1735 14.7999C8.0274 17.1031 7.98048 20.9424 11.0509 23.35C12.6051 24.5682 14.4119 25.1524 16.3474 25.4187C18.8327 25.7668 21.3656 25.4944 23.7201 24.6257C23.8018 24.5955 23.879 24.5349 23.9834 24.5955" fill="#003594"/>
<path fill-rule="evenodd" clip-rule="evenodd" d="M1.60508 16.348C1.37841 16.2286 1.18576 16.0536 1.04517 15.8395C0.90292 15.6503 1.13294 15.5565 1.23584 15.4536C5.61829 11.0993 10.0007 6.75313 14.3832 2.41501C15.1292 1.67652 15.8965 0.96678 16.6243 0.204077C16.927 -0.122795 17.0783 -0.0168645 17.3386 0.240396C20.2703 3.17317 23.2081 6.09888 26.1519 9.01754C28.2978 11.1462 30.4466 13.2729 32.5985 15.3976C32.7604 15.558 33.0631 15.7003 32.7301 15.9908C32.491 16.2027 32.3564 16.4645 31.9508 16.1422C28.7524 13.6191 24.9576 11.9632 20.9326 11.3344C16.2286 10.5476 11.3971 11.1558 7.03471 13.0838C5.21003 13.8835 3.49229 14.9078 1.92135 16.1331C1.82148 16.2087 1.71555 16.2753 1.60962 16.348" fill="#003594"/>
</g>
<defs>
<clipPath id="clip0_162_6948">
<rect width="31.88" height="32" fill="white" transform="translate(0.880005)"/>
</clipPath>
</defs>
</svg>
