<svg width="170" height="62" viewBox="0 0 170 62" fill="none" xmlns="http://www.w3.org/2000/svg">
<path d="M44.7353 48.228C42.781 50.2059 40.8386 52.1902 38.8758 54.1542C36.5074 56.5233 34.1006 58.8546 31.7596 61.2507C31.2044 61.8193 30.9363 61.8043 30.3821 61.2513C22.765 53.6575 15.1216 46.0908 7.48465 38.517C6.25754 37.3006 5.05961 36.0525 3.79214 34.8797C3.2518 34.3797 3.34165 34.1301 3.84546 33.6915C9.3558 28.8869 15.6699 25.6427 22.8481 24.3097C36.0442 21.8584 47.8483 24.9441 58.1628 33.6019C58.8033 34.1389 58.8334 34.4159 58.2088 35.0042C53.6421 39.3075 48.8077 43.208 42.8513 45.4601C37.1674 47.6097 31.4746 47.5163 25.815 45.3961C23.5278 44.5399 21.5858 43.1536 20.1912 41.1C18.0749 37.985 18.3756 34.1274 20.9819 31.3975C23.3045 28.9651 26.2795 27.8591 29.5299 27.4233C31.9298 27.1018 34.3148 27.2285 36.625 28.0415C37.9761 28.5169 39.1749 29.2355 40.0905 30.3651C41.7959 32.4704 41.5803 35.247 39.4701 36.9511C36.8995 39.0274 33.9409 39.6334 30.7233 38.9154C29.6701 38.68 28.7685 38.1587 28.0453 37.3256C27.3659 36.5436 26.4755 36.4284 25.8176 36.9735C25.1178 37.5536 25.1072 38.4725 25.823 39.3063C27.1274 40.8249 28.861 41.5699 30.7773 41.8951C34.6846 42.5587 38.3848 41.9718 41.6718 39.6825C46.0494 36.6338 46.1362 31.4983 41.9014 28.2418C39.1549 26.1305 35.9287 25.4908 32.5556 25.4307C27.9244 25.3482 23.5922 26.3892 19.8094 29.1581C13.6832 33.641 13.5919 41.1162 19.5701 45.8016C22.5956 48.1739 26.1128 49.3106 29.8696 49.8306C34.783 50.51 39.565 49.9734 44.2232 48.2862C44.3833 48.2286 44.5335 48.1093 44.7353 48.228Z" fill="#003594"/>
<path d="M1.18653 32.1671C0.695392 31.9446 0.373958 31.5569 0.0878789 31.1778C-0.189067 30.8097 0.25935 30.6262 0.45822 30.4285C8.9858 21.9584 17.5193 13.493 26.0565 5.03198C27.5079 3.59303 29.0191 2.21125 30.4208 0.726644C31.023 0.0887856 31.3073 0.295906 31.8091 0.797649C37.5167 6.50626 43.2413 12.1981 48.9705 17.8849C53.1483 22.0311 57.342 26.1615 61.5213 30.3066C61.8355 30.6176 62.4252 30.8884 61.776 31.4626C61.3115 31.8745 61.0477 32.3827 60.2579 31.7622C53.9249 26.789 46.7358 23.6795 38.8072 22.4024C29.4787 20.8998 20.4346 22.0273 11.7502 25.815C8.1803 27.3718 4.86903 29.3628 1.79316 31.7493C1.60135 31.8984 1.39306 32.0257 1.18653 32.1671Z" fill="#003594"/>
<path d="M84.2905 23.8554C84.2905 24.0847 84.2805 24.2756 84.2604 24.4293C84.241 24.5837 84.2115 24.7081 84.1718 24.8028C84.1319 24.8978 84.0831 24.9665 84.0235 25.0097C83.9646 25.0533 83.8999 25.0752 83.8283 25.0752H76.1327C75.8726 25.0752 75.6536 24.9979 75.476 24.8441C75.2982 24.6904 75.2096 24.44 75.2096 24.0925V10.7376C75.2096 10.3902 75.2982 10.1398 75.476 9.98542C75.6536 9.83193 75.8729 9.75504 76.1327 9.75504H83.781C83.852 9.75504 83.9151 9.77477 83.9706 9.81454C84.026 9.85372 84.0727 9.92296 84.1126 10.0214C84.1517 10.1201 84.1818 10.2462 84.2015 10.4005C84.221 10.554 84.2307 10.7497 84.2307 10.9866C84.2307 11.2078 84.221 11.3952 84.2015 11.5487C84.1818 11.7028 84.1517 11.8274 84.1126 11.9223C84.0727 12.0169 84.026 12.0858 83.9706 12.1294C83.9151 12.1724 83.852 12.1942 83.781 12.1942H78.3114V15.9348H82.9402C83.0112 15.9348 83.0764 15.9569 83.1359 15.9998C83.1944 16.0435 83.244 16.1104 83.2834 16.2013C83.3227 16.2921 83.3527 16.4144 83.3725 16.5682C83.3918 16.7226 83.4019 16.91 83.4019 17.1307C83.4019 17.3598 83.3918 17.5495 83.3725 17.6989C83.3527 17.8489 83.3227 17.9694 83.2834 18.0599C83.2437 18.151 83.1944 18.216 83.1359 18.2553C83.0764 18.295 83.0112 18.3148 82.9402 18.3148H78.3114V22.6359H83.8283C83.8999 22.6359 83.9646 22.6575 84.0235 22.7008C84.0831 22.7443 84.1319 22.8136 84.1718 22.9084C84.2115 23.0034 84.241 23.1271 84.2604 23.2815C84.2805 23.4349 84.2905 23.6267 84.2905 23.8554Z" fill="#003594"/>
<path d="M96.9466 24.6723C96.9466 24.7513 96.9233 24.8203 96.8759 24.8795C96.8289 24.9387 96.749 24.9886 96.6387 25.027C96.5283 25.0669 96.376 25.097 96.1829 25.1165C95.9894 25.1361 95.7504 25.1459 95.4664 25.1459C95.1747 25.1459 94.9317 25.1361 94.7378 25.1165C94.5452 25.097 94.3926 25.0669 94.2817 25.027C94.1713 24.9886 94.0927 24.9387 94.0453 24.8795C93.998 24.8203 93.9743 24.751 93.9743 24.6723V18.6465C93.9743 18.1332 93.9368 17.7308 93.8617 17.4391C93.7869 17.1468 93.6784 16.8957 93.5364 16.6869C93.395 16.478 93.2112 16.316 92.9863 16.2016C92.7609 16.0871 92.4987 16.0296 92.1985 16.0296C91.8196 16.0296 91.4367 16.1681 91.0504 16.4444C90.6636 16.7208 90.2607 17.1233 89.843 17.6521V24.6726C89.843 24.7516 89.819 24.8206 89.772 24.8798C89.7243 24.939 89.6436 24.9889 89.5292 25.0274C89.415 25.0672 89.2628 25.0973 89.0734 25.1166C88.8843 25.1364 88.6433 25.1462 88.3513 25.1462C88.0593 25.1462 87.8187 25.1364 87.6293 25.1166C87.4394 25.0973 87.288 25.0672 87.1735 25.0274C87.0591 24.9889 86.9781 24.939 86.9309 24.8798C86.8832 24.8206 86.8596 24.7513 86.8596 24.6726V14.1119C86.8596 14.033 86.8793 13.9637 86.9192 13.9048C86.9583 13.8453 87.0293 13.7964 87.1322 13.7566C87.2344 13.7174 87.367 13.6879 87.529 13.6679C87.6911 13.6479 87.8941 13.6379 88.1386 13.6379C88.3911 13.6379 88.6003 13.6479 88.7658 13.6679C88.9314 13.6879 89.0599 13.7171 89.1506 13.7566C89.2414 13.7964 89.3062 13.8453 89.3459 13.9048C89.3852 13.9637 89.4048 14.033 89.4048 14.1119V15.3314C89.9891 14.7 90.5834 14.2262 91.1867 13.911C91.7908 13.5954 92.4203 13.4372 93.075 13.4372C93.7933 13.4372 94.3991 13.5557 94.8926 13.7925C95.3855 14.0294 95.7843 14.3511 96.0881 14.7574C96.3919 15.1634 96.6111 15.6395 96.7451 16.184C96.8795 16.7284 96.9466 17.384 96.9466 18.1491V24.6723Z" fill="#003594"/>
<path d="M109.39 14.8458C109.39 15.2247 109.346 15.5049 109.26 15.6867C109.173 15.8684 109.066 15.9586 108.94 15.9586H107.697C107.871 16.1483 107.995 16.3634 108.07 16.6039C108.145 16.8445 108.183 17.0949 108.183 17.3553C108.183 17.9712 108.08 18.5179 107.875 18.9953C107.67 19.4729 107.376 19.8753 106.992 20.2029C106.609 20.5306 106.148 20.7792 105.608 20.9483C105.067 21.1186 104.465 21.2035 103.802 21.2035C103.463 21.2035 103.139 21.1617 102.831 21.0789C102.523 20.996 102.286 20.8994 102.121 20.789C102.027 20.8921 101.941 21.014 101.866 21.156C101.792 21.298 101.754 21.4563 101.754 21.6296C101.754 21.8587 101.855 22.0461 102.055 22.1919C102.257 22.3378 102.539 22.4186 102.902 22.4347L105.472 22.529C106.071 22.5529 106.606 22.638 107.076 22.7839C107.545 22.93 107.94 23.1348 108.26 23.3993C108.579 23.6635 108.824 23.9811 108.993 24.3524C109.163 24.7237 109.248 25.1456 109.248 25.619C109.248 26.1403 109.133 26.6313 108.905 27.0932C108.676 27.5547 108.332 27.9557 107.875 28.2951C107.417 28.6338 106.843 28.9025 106.152 29.0999C105.461 29.2968 104.654 29.396 103.731 29.396C102.831 29.396 102.063 29.3244 101.428 29.1827C100.793 29.0407 100.272 28.8433 99.8649 28.5906C99.4586 28.338 99.1628 28.0364 98.9772 27.6849C98.7912 27.3337 98.699 26.9486 98.699 26.5309C98.699 26.2705 98.7326 26.0211 98.7992 25.7843C98.8667 25.5477 98.9648 25.3206 99.0956 25.1037C99.2255 24.8869 99.3855 24.6797 99.5753 24.482C99.7653 24.2849 99.9822 24.0955 100.226 23.9137C99.8872 23.7325 99.6242 23.4856 99.4391 23.1736C99.2539 22.8619 99.1613 22.521 99.1613 22.1498C99.1613 21.6837 99.2677 21.2598 99.481 20.8767C99.6943 20.4941 99.9701 20.1487 100.309 19.8411C100.033 19.5651 99.8121 19.2337 99.6466 18.8467C99.481 18.4603 99.3979 17.9789 99.3979 17.4026C99.3979 16.7868 99.506 16.2361 99.7232 15.7509C99.9406 15.2657 100.243 14.8549 100.629 14.5197C101.016 14.1844 101.478 13.9281 102.014 13.7498C102.551 13.5724 103.143 13.4841 103.79 13.4841C104.122 13.4841 104.439 13.5038 104.743 13.5433C105.046 13.5828 105.329 13.6376 105.589 13.7089H108.94C109.074 13.7089 109.182 13.7958 109.265 13.969C109.348 14.1434 109.39 14.4354 109.39 14.8458ZM106.264 25.7737C106.264 25.4184 106.122 25.1459 105.838 24.9563C105.554 24.7673 105.164 24.6647 104.666 24.6489L102.546 24.5898C102.342 24.7395 102.177 24.884 102.055 25.0218C101.933 25.1597 101.834 25.292 101.759 25.4187C101.684 25.5448 101.635 25.6673 101.611 25.7854C101.588 25.9042 101.575 26.0262 101.575 26.1528C101.575 26.5474 101.775 26.8472 102.174 27.0526C102.573 27.2578 103.134 27.3602 103.861 27.3602C104.31 27.3602 104.69 27.3148 104.998 27.224C105.305 27.1337 105.554 27.0129 105.743 26.8635C105.932 26.7132 106.067 26.5456 106.145 26.3603C106.224 26.174 106.264 25.9788 106.264 25.7737ZM105.566 17.3441C105.566 16.776 105.408 16.3337 105.093 16.0181C104.777 15.7023 104.33 15.5447 103.755 15.5447C103.463 15.5447 103.207 15.5939 102.986 15.6923C102.764 15.7909 102.581 15.925 102.435 16.0947C102.289 16.2644 102.181 16.4622 102.11 16.6869C102.039 16.9117 102.003 17.1468 102.003 17.3914C102.003 17.9281 102.161 18.3525 102.476 18.6641C102.792 18.9759 103.23 19.1314 103.791 19.1314C104.09 19.1314 104.351 19.0843 104.572 18.9894C104.793 18.8947 104.976 18.7645 105.122 18.5988C105.268 18.4331 105.379 18.2416 105.453 18.0247C105.528 17.8074 105.566 17.5808 105.566 17.3441Z" fill="#003594"/>
<path d="M121.454 24.6723C121.454 24.7513 121.43 24.8203 121.383 24.8795C121.336 24.9387 121.257 24.9885 121.146 25.027C121.036 25.0669 120.883 25.097 120.691 25.1164C120.497 25.1361 120.258 25.1459 119.974 25.1459C119.682 25.1459 119.439 25.1361 119.246 25.1164C119.052 25.097 118.9 25.0669 118.789 25.027C118.679 24.9885 118.6 24.9387 118.553 24.8795C118.505 24.8203 118.482 24.751 118.482 24.6723V18.6465C118.482 18.1332 118.444 17.7308 118.369 17.4391C118.294 17.1468 118.186 16.8957 118.044 16.6869C117.901 16.478 117.718 16.316 117.493 16.2016C117.268 16.0871 117.006 16.0296 116.706 16.0296C116.327 16.0296 115.944 16.168 115.558 16.4444C115.171 16.7207 114.768 17.1233 114.35 17.6521V24.6726C114.35 24.7516 114.326 24.8206 114.279 24.8798C114.232 24.939 114.151 24.9888 114.036 25.0273C113.921 25.0672 113.77 25.0973 113.58 25.1166C113.391 25.1364 113.15 25.1462 112.859 25.1462C112.566 25.1462 112.325 25.1364 112.136 25.1166C111.947 25.0973 111.795 25.0672 111.68 25.0273C111.566 24.9888 111.485 24.939 111.438 24.8798C111.391 24.8206 111.367 24.7513 111.367 24.6726V9.1036C111.367 9.02522 111.391 8.95363 111.438 8.89058C111.485 8.82723 111.566 8.77391 111.68 8.7306C111.795 8.68729 111.947 8.654 112.136 8.63014C112.326 8.60628 112.566 8.59448 112.859 8.59448C113.15 8.59448 113.391 8.60657 113.58 8.63014C113.77 8.654 113.921 8.68729 114.036 8.7306C114.151 8.77362 114.232 8.82723 114.279 8.89058C114.326 8.95363 114.35 9.02522 114.35 9.1036V14.9407C114.863 14.4354 115.386 14.0586 115.918 13.8099C116.451 13.5612 117.005 13.4369 117.582 13.4369C118.3 13.4369 118.906 13.5554 119.399 13.7922C119.892 14.0291 120.291 14.3529 120.595 14.763C120.899 15.1734 121.117 15.6531 121.252 16.2016C121.387 16.7499 121.454 17.4151 121.454 18.1965L121.454 24.6723Z" fill="#003594"/>
<path d="M135.058 19.2858C135.058 20.1855 134.939 21.0063 134.702 21.7483C134.465 22.49 134.107 23.1294 133.625 23.6666C133.144 24.203 132.54 24.6176 131.814 24.9093C131.088 25.2012 130.239 25.3474 129.269 25.3474C128.329 25.3474 127.512 25.2169 126.818 24.9563C126.123 24.6959 125.547 24.3173 125.089 23.82C124.631 23.3228 124.292 22.7116 124.071 21.985C123.85 21.2589 123.74 20.4301 123.74 19.4988C123.74 18.5991 123.86 17.7758 124.101 17.0304C124.342 16.2841 124.703 15.6448 125.184 15.1121C125.666 14.5792 126.268 14.1673 126.99 13.875C127.711 13.5827 128.559 13.4369 129.53 13.4369C130.477 13.4369 131.297 13.5654 131.992 13.8214C132.687 14.0786 133.26 14.4554 133.715 14.9527C134.169 15.4501 134.506 16.0621 134.727 16.7876C134.947 17.5136 135.058 18.3462 135.058 19.2858ZM131.991 19.4042C131.991 18.8831 131.95 18.4037 131.867 17.9652C131.784 17.5274 131.644 17.1465 131.447 16.823C131.249 16.4994 130.987 16.2467 130.659 16.0653C130.332 15.8834 129.919 15.7928 129.422 15.7928C128.98 15.7928 128.593 15.8738 128.262 16.0355C127.93 16.1972 127.658 16.4341 127.445 16.7459C127.232 17.0575 127.072 17.4329 126.966 17.8705C126.859 18.3085 126.806 18.8082 126.806 19.3683C126.806 19.8888 126.849 20.3685 126.936 20.8063C127.023 21.2445 127.163 21.626 127.356 21.9488C127.55 22.2727 127.812 22.5233 128.144 22.7004C128.475 22.8782 128.886 22.9671 129.375 22.9671C129.825 22.9671 130.216 22.886 130.547 22.7244C130.879 22.5629 131.151 22.3275 131.364 22.0199C131.577 21.7124 131.735 21.3389 131.837 20.901C131.94 20.4637 131.991 19.9646 131.991 19.4042Z" fill="#003594"/>
<path d="M147.43 24.6723C147.43 24.7513 147.41 24.8203 147.37 24.8795C147.331 24.9387 147.262 24.9886 147.163 25.0271C147.065 25.0669 146.935 25.097 146.773 25.1165C146.611 25.1361 146.408 25.1459 146.164 25.1459C145.903 25.1459 145.692 25.1361 145.53 25.1165C145.368 25.097 145.24 25.0669 145.145 25.0271C145.051 24.9886 144.983 24.9387 144.944 24.8795C144.904 24.8203 144.885 24.751 144.885 24.6723V23.453C144.301 24.085 143.707 24.5581 143.103 24.8739C142.498 25.1895 141.873 25.3474 141.226 25.3474C140.5 25.3474 139.89 25.2289 139.397 24.9921C138.903 24.7555 138.505 24.4317 138.201 24.0213C137.897 23.6111 137.68 23.1354 137.55 22.5947C137.42 22.0538 137.355 21.3808 137.355 20.576V14.1119C137.355 14.033 137.376 13.9637 137.42 13.9048C137.463 13.8453 137.542 13.7964 137.657 13.7566C137.771 13.7174 137.925 13.688 138.118 13.6679C138.311 13.6482 138.55 13.6379 138.835 13.6379C139.126 13.6379 139.368 13.6479 139.557 13.6679C139.746 13.6877 139.898 13.7171 140.013 13.7566C140.128 13.7964 140.208 13.8453 140.255 13.9048C140.303 13.9637 140.326 14.033 140.326 14.1119V20.079C140.326 20.6317 140.362 21.0542 140.433 21.3459C140.503 21.6377 140.612 21.8878 140.758 22.0973C140.904 22.3068 141.09 22.4686 141.315 22.5827C141.54 22.697 141.802 22.7542 142.102 22.7542C142.481 22.7542 142.862 22.6164 143.245 22.3401C143.628 22.0637 144.037 21.661 144.47 21.1322V14.1119C144.47 14.033 144.492 13.9637 144.535 13.9048C144.579 13.8453 144.658 13.7964 144.772 13.7566C144.887 13.7174 145.039 13.688 145.228 13.6679C145.418 13.6482 145.658 13.6379 145.95 13.6379C146.243 13.6379 146.484 13.6479 146.672 13.6679C146.862 13.6877 147.012 13.7171 147.123 13.7566C147.233 13.7964 147.312 13.8453 147.359 13.9048C147.406 13.9637 147.43 14.033 147.43 14.1119L147.43 24.6723Z" fill="#003594"/>
<path d="M157.86 21.6888C157.86 22.2892 157.748 22.8178 157.522 23.2752C157.297 23.7335 156.98 24.1161 156.57 24.4237C156.159 24.7318 155.673 24.9626 155.113 25.1165C154.553 25.2701 153.945 25.3474 153.29 25.3474C152.895 25.3474 152.519 25.318 152.16 25.2585C151.8 25.1994 151.478 25.1243 151.195 25.0336C150.911 24.9426 150.674 24.8501 150.485 24.7555C150.295 24.6607 150.158 24.5716 150.071 24.4891C149.983 24.4058 149.917 24.2758 149.869 24.0982C149.821 23.9209 149.798 23.6586 149.798 23.3113C149.798 23.082 149.806 22.8988 149.821 22.7606C149.838 22.6221 149.861 22.5117 149.893 22.4292C149.924 22.3458 149.963 22.2907 150.01 22.2632C150.058 22.2355 150.117 22.2217 150.188 22.2217C150.275 22.2217 150.403 22.2712 150.574 22.3694C150.743 22.4683 150.954 22.577 151.206 22.6949C151.459 22.8136 151.753 22.9241 152.088 23.0264C152.424 23.1291 152.805 23.1802 153.231 23.1802C153.5 23.1802 153.738 23.1524 153.948 23.0974C154.156 23.042 154.339 22.9633 154.492 22.8607C154.645 22.7586 154.762 22.6279 154.842 22.4701C154.922 22.3122 154.96 22.1307 154.96 21.9251C154.96 21.6882 154.886 21.4848 154.741 21.3155C154.595 21.146 154.402 20.9979 154.161 20.872C153.92 20.7459 153.647 20.6272 153.344 20.5167C153.041 20.4062 152.729 20.284 152.409 20.1494C152.089 20.0153 151.777 19.8615 151.473 19.6879C151.169 19.5148 150.897 19.3015 150.656 19.0486C150.416 18.7961 150.223 18.4917 150.077 18.137C149.93 17.7817 149.858 17.3554 149.858 16.8582C149.858 16.3535 149.956 15.8894 150.153 15.4672C150.351 15.0447 150.635 14.6844 151.006 14.3841C151.377 14.0839 151.829 13.8512 152.362 13.6853C152.896 13.5197 153.492 13.4366 154.156 13.4366C154.488 13.4366 154.81 13.4605 155.121 13.5082C155.432 13.5554 155.714 13.6143 155.967 13.6853C156.219 13.7563 156.432 13.8335 156.605 13.916C156.78 13.9994 156.904 14.0704 156.98 14.1293C157.055 14.1888 157.108 14.2474 157.139 14.307C157.171 14.3662 157.194 14.4369 157.21 14.52C157.226 14.6028 157.24 14.7056 157.251 14.8281C157.263 14.9504 157.269 15.1024 157.269 15.2839C157.269 15.4969 157.263 15.6704 157.251 15.8054C157.24 15.9394 157.22 16.0452 157.193 16.1245C157.165 16.2041 157.127 16.2567 157.081 16.2842C157.033 16.3125 156.978 16.326 156.915 16.326C156.843 16.326 156.733 16.2842 156.582 16.2016C156.434 16.1184 156.245 16.0296 156.021 15.9351C155.796 15.8408 155.535 15.7515 155.24 15.6687C154.943 15.5856 154.606 15.5447 154.227 15.5447C153.958 15.5447 153.725 15.5721 153.529 15.6272C153.332 15.6828 153.17 15.7618 153.043 15.8641C152.917 15.9672 152.823 16.0871 152.759 16.2256C152.696 16.3634 152.665 16.5116 152.665 16.6689C152.665 16.9141 152.74 17.1192 152.89 17.2847C153.04 17.4503 153.238 17.597 153.481 17.7228C153.727 17.8489 154.004 17.9677 154.317 18.0781C154.629 18.1885 154.945 18.3088 155.265 18.4388C155.584 18.5693 155.898 18.7213 156.211 18.8946C156.523 19.0687 156.802 19.2814 157.047 19.5341C157.291 19.7867 157.489 20.0883 157.637 20.4398C157.785 20.7913 157.86 21.2074 157.86 21.6888Z" fill="#003594"/>
<path d="M169.854 19.0843C169.854 19.4476 169.773 19.7163 169.61 19.8891C169.449 20.0633 169.227 20.1497 168.941 20.1497H162.513C162.513 20.5992 162.566 21.0082 162.672 21.3747C162.779 21.7421 162.95 22.0538 163.183 22.3102C163.414 22.5667 163.715 22.7624 164.081 22.8962C164.448 23.0308 164.89 23.0977 165.402 23.0977C165.923 23.0977 166.38 23.0609 166.776 22.9854C167.17 22.9106 167.511 22.8274 167.8 22.7367C168.087 22.6457 168.326 22.5635 168.517 22.4881C168.705 22.4132 168.859 22.3758 168.978 22.3758C169.049 22.3758 169.107 22.3893 169.155 22.4174C169.202 22.445 169.242 22.4939 169.274 22.5652C169.305 22.6362 169.326 22.737 169.339 22.867C169.351 22.9975 169.357 23.1616 169.357 23.3584C169.357 23.5321 169.354 23.6804 169.345 23.8023C169.337 23.9246 169.326 24.0295 169.309 24.1161C169.294 24.2028 169.27 24.2758 169.239 24.3348C169.207 24.3943 169.165 24.4515 169.115 24.5069C169.063 24.5622 168.923 24.6374 168.693 24.7318C168.464 24.8262 168.173 24.9189 167.817 25.0097C167.463 25.1005 167.057 25.1795 166.598 25.247C166.14 25.3141 165.65 25.3474 165.13 25.3474C164.19 25.3474 163.368 25.2289 162.661 24.9921C161.956 24.7555 161.366 24.3966 160.892 23.9146C160.418 23.4332 160.065 22.8255 159.832 22.0912C159.599 21.3574 159.482 20.497 159.482 19.5106C159.482 18.5713 159.605 17.7246 159.849 16.9706C160.094 16.2173 160.448 15.578 160.915 15.0524C161.381 14.5279 161.947 14.1275 162.614 13.8512C163.281 13.5751 164.032 13.4366 164.87 13.4366C165.753 13.4366 166.508 13.5666 167.136 13.8273C167.764 14.0878 168.279 14.449 168.681 14.9106C169.084 15.3726 169.38 15.9192 169.569 16.5505C169.759 17.1822 169.852 17.8686 169.852 18.6106V19.0843H169.854ZM166.965 18.2316C166.988 17.3952 166.82 16.7385 166.462 16.2605C166.103 15.783 165.548 15.5447 164.798 15.5447C164.419 15.5447 164.091 15.6157 163.81 15.7577C163.529 15.8994 163.296 16.0909 163.112 16.3315C162.927 16.5726 162.784 16.8566 162.686 17.1836C162.586 17.5116 162.531 17.8613 162.514 18.2316H166.965Z" fill="#003594"/>
<path d="M87.5977 50.0545C87.5977 50.2351 87.5661 50.3962 87.5034 50.538C87.4407 50.6791 87.3562 50.7969 87.2501 50.8912C87.1439 50.9855 87.0182 51.0547 86.873 51.0975C86.7274 51.1404 86.58 51.1622 86.431 51.1622H85.111C84.8359 51.1622 84.5984 51.1349 84.3981 51.08C84.1978 51.0246 84.013 50.9251 83.8441 50.7793C83.6751 50.634 83.5121 50.4377 83.3551 50.1901C83.1977 49.9425 83.0214 49.6223 82.8248 49.2293L79.0301 42.0997C78.8099 41.6757 78.586 41.2182 78.3583 40.7267C78.1305 40.2358 77.9261 39.7589 77.7454 39.2951H77.722C77.7531 39.8608 77.777 40.4247 77.7927 40.9863C77.8082 41.5475 77.8161 42.1273 77.8161 42.724V50.7024C77.8161 50.7813 77.7944 50.852 77.7514 50.9148C77.7083 50.9782 77.6335 51.0312 77.5275 51.0739C77.4214 51.1166 77.2778 51.1508 77.0973 51.1743C76.9164 51.1979 76.6848 51.2094 76.402 51.2094C76.1267 51.2094 75.899 51.1979 75.7185 51.1743C75.5376 51.1508 75.3962 51.1174 75.2942 51.0739C75.192 51.0309 75.1212 50.9782 75.0821 50.9148C75.0427 50.852 75.0232 50.7813 75.0232 50.7024V36.9964C75.0232 36.627 75.131 36.3503 75.3472 36.1657C75.5632 35.9809 75.8283 35.889 76.1427 35.889H77.8043C78.1029 35.889 78.3541 35.9143 78.5587 35.9656C78.7628 36.0168 78.9455 36.1014 79.1066 36.2186C79.2675 36.3365 79.4189 36.4997 79.5604 36.7078C79.7018 36.9161 79.847 37.1733 79.9964 37.4797L82.9662 43.0539C83.1389 43.3919 83.31 43.7239 83.4788 44.0498C83.6477 44.376 83.8106 44.702 83.9679 45.0279C84.1249 45.3541 84.2781 45.674 84.4275 45.9884C84.5766 46.3025 84.7221 46.6171 84.8637 46.9309H84.8753C84.8519 46.3814 84.8341 45.808 84.8224 45.2102C84.8106 44.6137 84.8046 44.0438 84.8046 43.5017V36.348C84.8046 36.2697 84.8282 36.199 84.8753 36.1362C84.9226 36.0729 85.0009 36.0183 85.111 35.9706C85.221 35.9234 85.3662 35.8904 85.5472 35.8702C85.7277 35.851 85.9596 35.8407 86.2425 35.8407C86.5093 35.8407 86.7332 35.8504 86.9142 35.8702C87.0949 35.8901 87.2341 35.9234 87.3326 35.9706C87.4307 36.0174 87.4993 36.0729 87.5388 36.1362C87.5779 36.199 87.5977 36.2697 87.5977 36.348V50.0545Z" fill="#003594"/>
<path d="M100.455 45.1753C100.455 45.5367 100.375 45.8039 100.213 45.9766C100.052 46.1495 99.8301 46.2362 99.5476 46.2362H93.1481C93.1481 46.6843 93.201 47.0902 93.3075 47.4558C93.413 47.8211 93.582 48.132 93.8138 48.3869C94.0457 48.6421 94.3445 48.8365 94.7099 48.9699C95.0752 49.1037 95.5134 49.1705 96.0236 49.1705C96.5421 49.1705 96.9979 49.1331 97.3909 49.0586C97.784 48.9837 98.1233 48.9018 98.4106 48.8109C98.6975 48.7204 98.9348 48.6382 99.1238 48.5634C99.3122 48.4885 99.4654 48.4511 99.5832 48.4511C99.654 48.4511 99.7132 48.4649 99.7606 48.4927C99.8072 48.5203 99.8469 48.5695 99.8779 48.6399C99.909 48.7106 99.9308 48.8109 99.9429 48.9408C99.9544 49.0698 99.9612 49.2337 99.9612 49.4299C99.9612 49.6025 99.9567 49.7498 99.9491 49.8718C99.9412 49.9931 99.9297 50.0974 99.9141 50.1838C99.8978 50.2707 99.8744 50.3433 99.8434 50.4018C99.8121 50.461 99.7702 50.5182 99.7196 50.5727C99.6684 50.628 99.5293 50.7021 99.3013 50.7966C99.0732 50.8915 98.7828 50.9837 98.4288 51.0735C98.0756 51.1637 97.6705 51.2424 97.2153 51.3092C96.7595 51.3764 96.2722 51.4094 95.7537 51.4094C94.8185 51.4094 93.9999 51.2919 93.2966 51.0562C92.5933 50.8202 92.0064 50.4629 91.535 49.9835C91.0632 49.5047 90.7117 48.8992 90.4805 48.1686C90.2486 47.4382 90.1325 46.5814 90.1325 45.5998C90.1325 44.6643 90.2546 43.8223 90.498 43.0718C90.7413 42.3214 91.0948 41.6852 91.5586 41.1627C92.0223 40.641 92.5856 40.2418 93.2496 39.9663C93.9138 39.6911 94.6618 39.5541 95.495 39.5541C96.3748 39.5541 97.127 39.6837 97.7519 39.9427C98.3761 40.2022 98.8884 40.5617 99.2895 41.021C99.6905 41.4809 99.9851 42.0245 100.173 42.6535C100.362 43.2819 100.457 43.9651 100.457 44.7038L100.455 45.1753ZM97.5798 44.3264C97.6033 43.4939 97.436 42.8401 97.0787 42.3642C96.7212 41.8893 96.1694 41.6513 95.4232 41.6513C95.0458 41.6513 94.7176 41.722 94.4391 41.8637C94.1601 42.0051 93.9283 42.1957 93.7435 42.4349C93.5588 42.6745 93.4182 42.9573 93.3199 43.2838C93.2214 43.6101 93.1645 43.9575 93.1489 44.3264H97.5798Z" fill="#003594"/>
<path d="M108.952 49.7012C108.952 50.0471 108.93 50.3117 108.887 50.4965C108.844 50.6811 108.787 50.8105 108.716 50.8851C108.645 50.9599 108.541 51.0262 108.404 51.0857C108.266 51.1442 108.105 51.1955 107.92 51.2389C107.735 51.2818 107.535 51.3157 107.319 51.3393C107.103 51.3626 106.885 51.3747 106.665 51.3747C106.076 51.3747 105.565 51.2999 105.133 51.1507C104.701 51.0016 104.343 50.7716 104.06 50.4613C103.777 50.1505 103.569 49.7599 103.436 49.2888C103.302 48.8174 103.235 48.2596 103.235 47.6153V42.2293H101.975C101.825 42.2293 101.711 42.1374 101.633 41.9529C101.554 41.7678 101.515 41.4594 101.515 41.0273C101.515 40.7998 101.525 40.6068 101.545 40.4497C101.564 40.2927 101.594 40.1689 101.634 40.0786C101.673 39.9878 101.722 39.9236 101.781 39.8841C101.839 39.8449 101.909 39.8251 101.987 39.8251H103.236V37.48C103.236 37.4016 103.257 37.3309 103.301 37.2676C103.344 37.2048 103.423 37.1515 103.537 37.1087C103.65 37.0657 103.804 37.0338 103.996 37.0145C104.189 36.995 104.427 36.9849 104.71 36.9849C105 36.9849 105.242 36.9947 105.434 37.0145C105.626 37.0338 105.778 37.0657 105.888 37.1087C105.998 37.1518 106.077 37.2048 106.124 37.2676C106.171 37.3309 106.194 37.4016 106.194 37.48V39.8251H108.481C108.559 39.8251 108.628 39.8449 108.687 39.8841C108.746 39.9236 108.795 39.9884 108.834 40.0786C108.874 40.1686 108.903 40.2927 108.923 40.4497C108.942 40.6068 108.952 40.7998 108.952 41.0273C108.952 41.4594 108.913 41.7678 108.835 41.9529C108.756 42.1371 108.643 42.2293 108.493 42.2293H106.195V47.1674C106.195 47.7408 106.286 48.1713 106.466 48.4582C106.646 48.7451 106.969 48.8884 107.432 48.8884C107.589 48.8884 107.731 48.8746 107.856 48.8468C107.982 48.819 108.094 48.7879 108.192 48.7528C108.29 48.7175 108.373 48.6856 108.44 48.6588C108.507 48.6312 108.568 48.6172 108.622 48.6172C108.67 48.6172 108.715 48.6312 108.758 48.6588C108.801 48.6865 108.835 48.741 108.858 48.8238C108.882 48.9066 108.903 49.0179 108.924 49.1603C108.942 49.3 108.952 49.4814 108.952 49.7012Z" fill="#003594"/>
<path d="M127.183 40.2017C127.183 40.2885 127.172 40.3944 127.148 40.5198C127.125 40.646 127.081 40.8265 127.018 41.0619L124.213 50.5727C124.174 50.7061 124.123 50.8141 124.06 50.8967C123.997 50.9789 123.901 51.0441 123.771 51.0912C123.642 51.1384 123.457 51.1699 123.218 51.1855C122.978 51.2011 122.665 51.2091 122.28 51.2091C121.895 51.2091 121.581 51.1988 121.338 51.1791C121.094 51.1593 120.903 51.126 120.767 51.0789C120.629 51.0317 120.529 50.9667 120.466 50.8845C120.403 50.8023 120.356 50.698 120.325 50.5718L118.557 44.1841L118.533 44.0786L118.51 44.1841L116.883 50.5718C116.852 50.7059 116.807 50.8135 116.748 50.8963C116.689 50.9788 116.589 51.0435 116.447 51.0904C116.306 51.1375 116.113 51.1694 115.87 51.1846C115.626 51.2002 115.311 51.2082 114.927 51.2082C114.534 51.2082 114.218 51.1985 113.978 51.1784C113.738 51.1593 113.55 51.1251 113.413 51.078C113.275 51.0312 113.174 50.9663 113.112 50.8838C113.049 50.8016 113.002 50.6971 112.971 50.5716L110.189 41.0615C110.118 40.8339 110.073 40.6551 110.053 40.5255C110.034 40.3964 110.024 40.2879 110.024 40.2011C110.024 40.1225 110.045 40.0538 110.089 39.9952C110.132 39.9363 110.211 39.8894 110.325 39.8541C110.439 39.8184 110.592 39.793 110.785 39.7768C110.977 39.7611 111.219 39.7533 111.51 39.7533C111.823 39.7533 112.079 39.7611 112.276 39.7768C112.472 39.793 112.625 39.8199 112.735 39.859C112.845 39.8989 112.922 39.9516 112.965 40.0185C113.008 40.0853 113.042 40.1657 113.065 40.26L115.151 47.9788L115.175 48.12L115.198 47.9788L117.155 40.26C117.178 40.1657 117.216 40.0847 117.267 40.0185C117.318 39.9516 117.395 39.8989 117.496 39.859C117.599 39.8199 117.742 39.7921 117.927 39.7768C118.111 39.7615 118.349 39.7533 118.64 39.7533C118.93 39.7533 119.166 39.7633 119.347 39.7834C119.527 39.8027 119.671 39.8305 119.777 39.8656C119.883 39.9005 119.957 39.9478 120.001 40.0067C120.044 40.0659 120.078 40.1347 120.101 40.2131L122.198 47.9909L122.234 48.12L122.258 47.9788L124.261 40.26C124.277 40.1657 124.308 40.0847 124.355 40.0185C124.402 39.9516 124.481 39.8989 124.591 39.859C124.701 39.8199 124.85 39.7921 125.039 39.7768C125.228 39.7611 125.467 39.7533 125.757 39.7533C126.048 39.7533 126.286 39.7611 126.471 39.7768C126.655 39.793 126.8 39.8184 126.906 39.8541C127.012 39.889 127.085 39.936 127.124 39.9952C127.164 40.0544 127.183 40.1235 127.183 40.2017Z" fill="#003594"/>
<path d="M139.51 45.3755C139.51 46.2712 139.392 47.0885 139.157 47.8268C138.921 48.5654 138.563 49.2015 138.084 49.736C137.605 50.2698 137.004 50.6826 136.281 50.9731C135.558 51.2629 134.714 51.4088 133.747 51.4088C132.812 51.4088 131.999 51.2798 131.308 51.0202C130.616 50.761 130.042 50.3842 129.587 49.8885C129.131 49.3937 128.793 48.785 128.574 48.0622C128.354 47.3394 128.244 46.5145 128.244 45.5879C128.244 44.692 128.364 43.8733 128.603 43.1306C128.843 42.3878 129.202 41.7514 129.682 41.2217C130.161 40.6919 130.76 40.2809 131.479 39.9901C132.198 39.6996 133.041 39.5541 134.007 39.5541C134.949 39.5541 135.767 39.682 136.458 39.937C137.149 40.1925 137.721 40.5683 138.172 41.0622C138.624 41.5573 138.96 42.1665 139.18 42.8892C139.4 43.6126 139.51 44.4407 139.51 45.3755ZM136.458 45.4933C136.458 44.9748 136.417 44.4973 136.334 44.0616C136.252 43.6257 136.112 43.2463 135.916 42.9249C135.719 42.6022 135.458 42.3512 135.132 42.1701C134.806 41.9894 134.396 41.8989 133.9 41.8989C133.46 41.8989 133.075 41.9798 132.745 42.1403C132.416 42.3015 132.145 42.5374 131.932 42.8475C131.72 43.1582 131.561 43.5304 131.455 43.9673C131.349 44.403 131.296 44.9 131.296 45.4577C131.296 45.9766 131.339 46.4538 131.425 46.89C131.512 47.3256 131.651 47.7052 131.843 48.0268C132.036 48.3491 132.297 48.5982 132.627 48.7749C132.957 48.9523 133.366 49.04 133.853 49.04C134.301 49.04 134.69 48.9597 135.02 48.7985C135.35 48.6373 135.621 48.4037 135.833 48.097C136.045 47.7909 136.202 47.4196 136.304 46.984C136.407 46.5481 136.458 46.0514 136.458 45.4933Z" fill="#003594"/>
<path d="M148.609 41.2042C148.609 41.4869 148.601 41.7184 148.585 41.8989C148.569 42.0799 148.545 42.2213 148.514 42.3233C148.483 42.4252 148.442 42.4959 148.39 42.535C148.339 42.5748 148.274 42.5942 148.196 42.5942C148.133 42.5942 148.063 42.5804 147.984 42.5527C147.905 42.5251 147.817 42.4959 147.719 42.464C147.621 42.4331 147.513 42.4033 147.395 42.3754C147.277 42.3483 147.147 42.3345 147.006 42.3345C146.841 42.3345 146.676 42.3674 146.511 42.4346C146.346 42.5015 146.175 42.6054 145.998 42.7468C145.822 42.8884 145.637 43.0769 145.444 43.3126C145.252 43.5489 145.045 43.839 144.826 44.1847V50.7371C144.826 50.816 144.802 50.8844 144.755 50.943C144.708 51.0022 144.627 51.0511 144.514 51.0904C144.399 51.1301 144.249 51.1589 144.06 51.179C143.871 51.1985 143.631 51.2091 143.341 51.2091C143.051 51.2091 142.811 51.1988 142.622 51.179C142.434 51.1592 142.283 51.1301 142.169 51.0904C142.055 51.0511 141.975 51.0022 141.927 50.943C141.881 50.8844 141.857 50.8157 141.857 50.7371V40.2249C141.857 40.1459 141.876 40.0777 141.916 40.0185C141.955 39.9597 142.026 39.9108 142.128 39.8711C142.23 39.8318 142.362 39.8027 142.523 39.7831C142.684 39.7633 142.886 39.753 143.13 39.753C143.382 39.753 143.59 39.763 143.755 39.7831C143.92 39.8021 144.047 39.8318 144.138 39.8711C144.228 39.9108 144.293 39.9597 144.332 40.0185C144.371 40.0777 144.391 40.1465 144.391 40.2249V41.5324C144.666 41.1397 144.925 40.8156 145.169 40.5603C145.412 40.3051 145.644 40.1026 145.864 39.953C146.084 39.8039 146.304 39.6999 146.524 39.6404C146.744 39.5817 146.964 39.5516 147.184 39.5516C147.286 39.5516 147.396 39.5579 147.513 39.57C147.631 39.582 147.753 39.6012 147.879 39.6286C148.004 39.6565 148.114 39.6875 148.209 39.7226C148.303 39.7582 148.372 39.7956 148.415 39.8349C148.458 39.8743 148.49 39.9171 148.509 39.9642C148.528 40.0112 148.546 40.0764 148.562 40.1586C148.578 40.2408 148.59 40.3646 148.597 40.5299C148.604 40.6969 148.609 40.9211 148.609 41.2042Z" fill="#003594"/>
<path d="M160.205 50.7495C160.205 50.8285 160.183 50.8967 160.14 50.9554C160.097 51.0146 160.018 51.0617 159.904 51.0968C159.789 51.1321 159.636 51.1596 159.439 51.179C159.243 51.1985 158.987 51.2091 158.673 51.2091C158.351 51.2091 158.09 51.2011 157.889 51.1855C157.688 51.1694 157.524 51.1436 157.394 51.1086C157.265 51.0732 157.164 51.024 157.093 50.9613C157.023 50.8982 156.96 50.816 156.904 50.7136L153.403 45.1743V50.7371C153.403 50.816 153.38 50.8844 153.333 50.943C153.286 51.0022 153.205 51.0511 153.092 51.0904C152.978 51.1301 152.827 51.1589 152.638 51.179C152.45 51.1985 152.21 51.2091 151.92 51.2091C151.629 51.2091 151.389 51.1988 151.201 51.179C151.013 51.1592 150.861 51.1301 150.747 51.0904C150.633 51.0511 150.553 51.0022 150.506 50.943C150.459 50.8844 150.436 50.8154 150.436 50.7371V35.24C150.436 35.161 150.459 35.0903 150.506 35.0271C150.553 34.9644 150.634 34.9112 150.747 34.8681C150.861 34.8252 151.012 34.7916 151.201 34.768C151.39 34.7444 151.629 34.7325 151.92 34.7325C152.21 34.7325 152.45 34.7444 152.638 34.768C152.827 34.7916 152.978 34.8249 153.092 34.8681C153.206 34.9112 153.286 34.9644 153.333 35.0271C153.38 35.0903 153.403 35.161 153.403 35.24V44.4672L156.515 40.2836C156.578 40.1893 156.648 40.1065 156.728 40.0361C156.806 39.9654 156.911 39.9103 157.041 39.8708C157.17 39.8317 157.331 39.8022 157.524 39.7821C157.716 39.763 157.961 39.7524 158.26 39.7524C158.55 39.7524 158.797 39.7624 158.996 39.7821C159.197 39.8016 159.358 39.8317 159.481 39.8708C159.602 39.9103 159.686 39.9593 159.734 40.0182C159.78 40.0767 159.804 40.1499 159.804 40.2361C159.804 40.3534 159.774 40.4795 159.716 40.613C159.657 40.7464 159.568 40.8881 159.45 41.0369L156.375 44.5253L159.933 50.0292C160.028 50.1862 160.097 50.3216 160.14 50.4357C160.183 50.5509 160.205 50.6555 160.205 50.7495Z" fill="#003594"/>
<path d="M169.221 47.7679C169.221 48.3648 169.109 48.8913 168.885 49.347C168.661 49.8028 168.343 50.1838 167.935 50.4899C167.526 50.7966 167.044 51.0261 166.486 51.1797C165.928 51.3332 165.324 51.4094 164.671 51.4094C164.278 51.4094 163.904 51.3796 163.546 51.3207C163.188 51.2622 162.869 51.1873 162.585 51.0968C162.303 51.0064 162.067 50.9145 161.878 50.8202C161.689 50.7259 161.553 50.6372 161.465 50.555C161.379 50.4728 161.314 50.3426 161.266 50.1667C161.218 49.9893 161.195 49.7289 161.195 49.3829C161.195 49.1552 161.203 48.9721 161.218 48.835C161.234 48.6977 161.258 48.5871 161.289 48.5049C161.32 48.4228 161.36 48.3674 161.407 48.3398C161.453 48.3126 161.513 48.2985 161.583 48.2985C161.671 48.2985 161.798 48.3475 161.967 48.4458C162.136 48.5439 162.346 48.6517 162.597 48.7703C162.849 48.888 163.142 48.9977 163.476 49.0998C163.809 49.2024 164.189 49.2533 164.612 49.2533C164.879 49.2533 165.117 49.226 165.325 49.1711C165.534 49.1164 165.713 49.038 165.868 48.9351C166.022 48.833 166.137 48.7035 166.215 48.5465C166.295 48.3895 166.333 48.209 166.333 48.0044C166.333 47.7685 166.261 47.5667 166.115 47.3973C165.969 47.2284 165.778 47.0812 165.537 46.9553C165.298 46.8298 165.028 46.7119 164.724 46.6018C164.422 46.4918 164.112 46.3702 163.793 46.2366C163.476 46.1032 163.165 45.9497 162.862 45.7769C162.56 45.6042 162.289 45.3918 162.05 45.1404C161.809 44.8888 161.617 44.5862 161.471 44.233C161.326 43.8797 161.254 43.4549 161.254 42.9608C161.254 42.4579 161.352 41.9965 161.548 41.5758C161.744 41.1556 162.028 40.7961 162.398 40.4974C162.766 40.1993 163.217 39.9674 163.746 39.8024C164.276 39.6375 164.871 39.555 165.532 39.555C165.862 39.555 166.183 39.5785 166.492 39.6257C166.804 39.6728 167.084 39.7314 167.334 39.8024C167.586 39.8731 167.799 39.9498 167.971 40.032C168.144 40.1148 168.268 40.1855 168.342 40.2444C168.417 40.3033 168.471 40.3623 168.501 40.4218C168.534 40.481 168.557 40.5508 168.572 40.6336C168.587 40.7164 168.603 40.8184 168.613 40.9403C168.626 41.0622 168.632 41.2134 168.632 41.3938C168.632 41.6062 168.626 41.779 168.613 41.9126C168.603 42.0463 168.583 42.1521 168.555 42.2305C168.527 42.3093 168.489 42.3621 168.443 42.3898C168.396 42.4176 168.34 42.4311 168.277 42.4311C168.207 42.4311 168.097 42.3898 167.948 42.3073C167.799 42.2254 167.612 42.1365 167.388 42.0425C167.164 41.9482 166.905 41.8601 166.61 41.7776C166.316 41.6951 165.98 41.6536 165.603 41.6536C165.336 41.6536 165.103 41.6815 164.908 41.7364C164.71 41.7914 164.549 41.8698 164.424 41.9718C164.298 42.0742 164.204 42.1938 164.141 42.3316C164.079 42.4691 164.046 42.6163 164.046 42.7734C164.046 43.0171 164.121 43.2215 164.272 43.3862C164.421 43.5515 164.617 43.6967 164.861 43.8223C165.103 43.9478 165.381 44.0656 165.69 44.1755C166.002 44.2855 166.316 44.4051 166.633 44.5353C166.952 44.6643 167.265 44.8161 167.577 44.9886C167.886 45.1619 168.164 45.374 168.406 45.6251C168.65 45.8767 168.846 46.1768 168.997 46.5269C169.145 46.8743 169.221 47.2888 169.221 47.7679Z" fill="#003594"/>
</svg>
